{"title":"Tere Bin Laden Dead or Alive (2016) CAMRip - XviD - [1CD] - Down","uid":13683242,"size":725821905,"categoryP":"video","categoryS":"movies","magnet":"?xt=urn:btih:8c42f7b9c15cea63cfe2e1a05ec5946aff5454ab&amp;dn=Tere+Bin+Laden+Dead+or+Alive+%282016%29+CAMRip+-+XviD+-+%5B1CD%5D+-+Down&amp;tr=udp%3A%2F%2Ftracker.leechers-paradise.org%3A6969&amp;tr=udp%3A%2F%2Fzer0day.ch%3A1337&amp;tr=udp%3A%2F%2Fopen.demonii.com%3A1337&amp;tr=udp%3A%2F%2Ftracker.coppersurfer.tk%3A6969&amp;tr=udp%3A%2F%2Fexodus.desync.com%3A6969","seeders":0,"leechers":1,"uploader":"dhencode","files":1,"time":1456510775,"description":"[center][img]http://photos.filmibeat.com/ph-big/2016/02/tere-bin-laden-dead-or-alive-poster_145579633470.jpg[/img]\r\n\r\n[b]Format                                   : MPEG-4 Visual\r\nFormat profile                           : Advanced   \r\nFormat settings, BVOP                    : 2\r\nFormat settings, QPel                    : No\r\nFormat settings, GMC                     : No warppoints\r\nFormat settings, Matrix                  : Default (H.263)\r\nCodec ID                                 : V_MS/VFW/FOURCC / XVID\r\nCodec ID/Hint                            : XviD\r\nDuration                                 : 1h 34mn\r\nBit rate                                 : 892 Kbps\r\nWidth                                    : 640 pixels\r\nHeight                                   : 272 pixels\r\nDisplay aspect ratio                     : 2.35:1\r\nFrame rate mode                          : Constant\r\nFrame rate                               : 25.000 fps\r\nColor space                              : YUV\r\nChroma subsampling                       : 4:2:0\r\nBit depth                                : 8 bits\r\nScan type                                : Progressive\r\nCompression mode                         : Lossy\r\nBits/(Pixel*Frame)                       : 0.205\r\nStream size                              : 604 MiB (87%)\r\nTitle                                    : Downloadhub\r\nWriting library                          : XviD 67\r\nDefault                                  : Yes\r\nForced                                   : No\r\n\r\nAudio\r\nID                                       : 2\r\nFormat                                   : MPEG Audio\r\nFormat version                           : Version 1\r\nFormat profile                           : Layer 3\r\nMode                                     : Joint stereo\r\nMode extension                           : MS Stereo\r\nCodec ID                                 : A_MPEG/L3\r\nCodec ID/Hint                            : MP3\r\nDuration                                 : 1h 34mn\r\nBit rate mode                            : Constant\r\nBit rate                                 : 128 Kbps\r\nChannel(s)                               : 2 channels\r\nSampling rate                            : 48.0 KHz\r\nFrame rate                               : 41.667 fps (1152 spf)\r\nCompression mode                         : Lossy\r\nStream size                              : 86.7 MiB (13%)\r\nTitle                                    : Downloadhub\r\nWriting library                          : LAME3.99r\r\nEncoding settings                        : -m j -V 4 -q 2 -lowpass 17 -b 128\r\nDefault                                  : Yes\r\nForced                                   : No[/b]\r\n\r\n[img]http://extraimago.com/images/2016/02/26/TereBinLadenDeadorAlive2016CAMRip-XviD-1CD-Downloadhub.mkv.jpg[/img]\r\n\r\n[center][img]http://i.imgur.com/Cyel4yU.png[/img][/center]","torrent":{"xt":"urn:btih:8c42f7b9c15cea63cfe2e1a05ec5946aff5454ab","amp;dn":"Tere+Bin+Laden+Dead+or+Alive+%282016%29+CAMRip+-+XviD+-+%5B1CD%5D+-+Down","amp;tr":["udp%3A%2F%2Ftracker.leechers-paradise.org%3A6969","udp%3A%2F%2Fzer0day.ch%3A1337","udp%3A%2F%2Fopen.demonii.com%3A1337","udp%3A%2F%2Ftracker.coppersurfer.tk%3A6969","udp%3A%2F%2Fexodus.desync.com%3A6969"],"infoHash":"8c42f7b9c15cea63cfe2e1a05ec5946aff5454ab","infoHashBuffer":{"type":"Buffer","data":[140,66,247,185,193,92,234,99,207,226,225,160,94,197,148,106,255,84,84,171]},"announce":[],"urlList":[]}}